<?xml version="1.0" encoding="utf-8" standalone="no"?>
<!-- Creator: Esri ArcMap 10.3.1.4959 -->
<!DOCTYPE svg PUBLIC "-//W3C//DTD SVG 1.1//EN"  "http://www.w3.org/Graphics/SVG/1.1/DTD/svg11.dtd">
<svg width="396.73701pt" height="340.49764pt" viewBox="0 0 396.73701 340.49764" enable-background="new 0 0 396.73701 340.49764"
	version="1.1" xmlns="http://www.w3.org/2000/svg" xmlns:xlink="http://www.w3.org/1999/xlink" >
	<g id="Layers">
		<g id="NIC_adm1">
			<clipPath id="SVG_CP_1">
				<path d="M11.79237,298.19359L11.79237,4.59036L387.52791,4.59036L387.52791,298.19359L11.79237,298.19359z"/>
			</clipPath>
			<path clip-path="url(#SVG_CP_1)" fill="#2C7BB6" fill-rule="evenodd" stroke="#2C7BB6" stroke-width="0.36007" stroke-miterlimit="10" stroke-linecap="round" stroke-linejoin="round" d="
				M406.34169,144.37142L404.81139,145.99155L401.84079,149.41182L399.95041,151.21196L398.69016,152.20204L397.69996,152.65208
				L396.79978,152.11204L396.07963,151.39198L395.17945,150.94194L394.00921,150.85194L392.74896,151.30197L391.48871,152.20204
				L390.13844,154.00218L389.59833,154.99226L388.9682,156.52238L387.88798,157.87249L386.71775,158.32253L385.36748,158.05251L
				382.21684,157.69248L379.33626,157.9625L377.5359,159.04258L376.72574,160.30268L376.18563,161.56278L375.64552,162.91289L374.47529,164.98305
				L373.48509,165.5231L372.49489,165.5231L371.32465,165.25307L369.97438,164.53302L369.0742,163.90297L367.36386,162.28284L366.55369,161.65279
				L365.02339,161.20275L363.85315,161.20275L362.50288,161.29276L361.33265,159.76264L361.15261,158.05251L359.89236,156.61239
				L358.45207,156.16236L357.10179,156.16236L356.1116,155.98234L354.40125,155.35229L353.77112,154.1822L352.51087,152.38206L351.97076,151.03195
				L351.70071,149.77185L351.25062,147.8817L350.44046,146.6216L348.82013,145.63152L347.73991,145.81154L346.74971,145.90154L345.6695,145.99155
				L344.40924,145.81154L343.05897,145.09148L341.97875,144.1014L341.25861,142.8413L340.44845,141.04116L339.45825,139.96107L338.10798,139.42103
				L337.11778,138.971L334.32722,136.99084L333.33702,135.2807L332.43684,133.75058L331.35662,132.7605L329.37622,131.95044L327.75589,132.49048
				L326.94573,133.39055L326.49564,134.29063L325.23539,135.01068L323.7951,135.10069L322.17477,135.1907L320.91452,135.37071L319.74428,135.64073
				L318.30399,135.82075L316.50363,135.2807L314.79329,134.29063L313.53304,133.39055L311.64266,131.86043L309.75227,130.2403L307.32179,128.53017
				L305.8815,127.00005L304.44121,125.37992L303.18095,123.57978L301.29057,121.05958L300.48041,119.70947L299.49021,117.72931L
				298.86009,116.01918L298.31998,113.94902L297.14974,111.69884L296.33958,111.15879L295.16934,110.43874L294.08913,109.9887L292.01871,109.08863
				L290.39838,108.54859L288.32797,107.3785L285.80746,106.1184L284.18714,104.31825L282.83686,101.078L282.38677,99.9079L280.67643,96.57764
				L280.13632,95.22753L279.0561,93.87743L277.88587,92.79734L276.62561,92.34731L274.64522,91.26722L272.21473,89.10705L269.96428,86.40684
				L267.44377,83.70662L264.02308,79.6563L262.94286,78.03617L262.31274,76.86608L261.41256,75.42597L260.78243,74.5259L259.97227,73.71583
				L258.80203,72.63575L258.1719,71.82568L257.72181,70.47558L257.36174,69.21548L256.91165,68.04538L256.46156,66.69528L255.56138,65.25516
				L254.75122,63.63504L254.03107,62.28493L253.58098,61.02483L253.13089,59.49471L252.6808,57.51455L252.59078,55.6244L252.50076,54.27429
				L252.23071,52.74417L251.51057,50.85402L250.34033,48.87387L249.08008,46.53368L248.62999,45.4536L247.72981,44.2835L247.27972,43.20342
				L247.00966,42.21334L246.73961,41.04325L246.37953,39.60313L246.28952,38.07301L246.37953,36.00285L246.46955,34.83276L246.64959,33.57266
				L247.09968,32.49257L247.90984,30.96245L248.72,29.70235L249.7102,28.44225L252.41075,25.65203L253.94105,24.12191L255.6514,22.59179
				L257.6318,21.24168L260.33234,19.44154L261.50257,18.81149L264.29314,17.46138L266.0935,16.29129L268.88406,13.23105L272.48478,10.53083
				L274.10511,9.27073L276.89567,7.02056L278.15592,5.85046L279.23614,4.95039L280.49639,3.69029L282.0267,3.15025L283.82706,2.70021
				L285.08732,2.34019L286.61762,1.98016L288.05791,1.80014L290.4884,0.72006L292.28876,-0.09001L294.08913,-0.72006L295.16934,-1.71014
				L295.70945,-2.70021L296.60963,-4.32034L297.50981,-5.76046L298.22996,-6.84054L298.86009,-7.83062L299.31018,-8.64068L300.03032,-10.0808
				L406.34169,-10.0808L406.34169,144.37142z"/>
			<path clip-path="url(#SVG_CP_1)" fill="#2C7BB6" fill-rule="evenodd" stroke="#2C7BB6" stroke-width="0.36007" stroke-miterlimit="10" stroke-linecap="round" stroke-linejoin="round" d="
				M300.03032,-10.0808L299.31018,-8.64068L298.86009,-7.83062L298.22996,-6.84054L297.50981,-5.76046L296.60963,-4.32034L295.70945,-2.70021
				L295.16934,-1.71014L294.08913,-0.72006L292.28876,-0.09001L290.4884,0.72006L288.05791,1.80014L286.61762,1.98016L285.08732,2.34019
				L283.82706,2.70021L282.0267,3.15025L280.49639,3.69029L279.23614,4.95039L278.15592,5.85046L276.89567,7.02056L274.10511,9.27073
				L272.48478,10.53083L268.88406,13.23105L266.0935,16.29129L264.29314,17.46138L261.50257,18.81149L260.33234,19.44154L257.6318,21.24168
				L255.6514,22.59179L253.94105,24.12191L252.41075,25.65203L249.7102,28.44225L248.72,29.70235L247.90984,30.96245L247.09968,32.49257
				L246.64959,33.57266L246.46955,34.83276L246.37953,36.00285L246.28952,38.07301L246.37953,39.60313L246.73961,41.04325L247.00966,42.21334
				L247.27972,43.20342L247.72981,44.2835L248.62999,45.4536L249.08008,46.53368L246.91964,47.25374L245.29932,48.69385L243.49896,50.40399
				L241.06847,52.20413L238.99805,54.00427L237.19769,55.26437L235.39733,56.70449L233.41693,58.05459L231.97664,58.95466L230.89642,59.67472
				L230.17628,60.39478L228.64597,61.56487L227.92582,62.37494L226.84561,63.36501L226.03544,64.17508L225.40532,64.98514L224.59515,65.7052
				L222.43472,67.23532L220.45432,67.68536L216.67356,68.40541L214.33309,68.76544L213.07284,68.94546L210.9124,69.03546L208.3919,69.21548
				L205.96141,69.66551L203.80097,69.84553L202.81077,69.93553L201.19045,70.38557L199.57012,70.8356L197.76976,71.64567L195.51931,72.81576
				L193.71895,73.89585L192.18864,75.15595L190.4783,77.58614L189.84817,79.11626L189.03801,81.09642L187.86777,83.07657L187.05761,84.6967
				L185.70734,86.85687L184.35706,88.92704L182.5567,91.80726L179.94618,96.21761L177.0656,102.4281L176.34545,104.31825L174.36506,107.4685
				L168.06379,115.0291L164.01297,119.16943L161.58249,121.3296L160.23221,122.5897L157.98176,124.29983L153.66089,127.90012L151.32042,129.88028
				L148.97995,132.13045L146.81952,134.20062L144.65908,136.5408L141.68849,139.60105L139.61807,142.12124L138.17778,144.19141L
				136.55745,147.16164L134.57706,151.21196L132.50664,155.4423L131.42642,157.33245L129.8061,159.58263L127.91572,161.8328L126.8355,162.82288
				L126.02534,163.54294L124.31499,164.08298L121.8845,164.17299L119.99412,164.263L118.73387,164.353L117.74367,164.263L115.94331,164.44301
				L114.14295,164.89305L111.44241,166.42317L110.09213,167.77327L106.9415,170.74351L102.4406,175.15386L96.4994,180.01424L93.88888,182.08441
				L90.19813,185.14465L87.76765,187.21481L85.33716,189.555L82.09651,192.43523L79.48598,194.50539L76.42537,196.93558L73.45477,199.36577
				L71.20432,201.52594L69.85404,203.05607L67.60359,205.30624L66.43336,206.47634L65.1731,207.82644L64.1829,208.90653L63.19271,209.71659
				L62.29252,210.25664L61.03227,211.33672L60.22211,212.05678L59.05187,213.31688L58.06167,214.93701L57.25151,215.83708L56.35133,216.91716
				L55.00106,217.99725L53.47075,218.7173L51.58037,219.52737L48.2497,220.60745L46.17928,220.87748L42.93863,220.42744L40.23809,219.9774
				L37.8076,219.79739L35.73719,219.70738L34.74699,219.61738L32.49653,219.25735L30.06605,219.25735L29.07585,219.25735L27.00543,218.7173
				L25.29509,217.99725L23.94481,217.27719L22.59454,217.00717L21.33429,216.91716L20.52413,217.4572L19.53393,218.35728L19.35389,220.15742
				L19.44391,221.41752L19.62395,223.03765L19.98402,224.29775L20.16405,225.55785L20.16405,226.81795L19.71396,227.98804L18.54373,228.34807
				L16.56333,228.34807L2.25045,227.17797L1.35027,224.83779L1.17024,223.21766L1.08022,221.41752L0.18004,219.07733L-1.35027,214.57698
				L-2.52051,212.86684L-4.14083,210.97669L-6.03121,209.53658L-7.02141,209.08654L-7.02141,-10.0808L39.24789,-10.0808L39.96804,-9.54076
				L44.55896,-6.84054L46.53936,-5.58044L48.60977,-3.33026L49.32992,-1.80014L50.68019,0.90007L52.12048,1.80014L53.92084,1.62013
				L56.17129,0.99008L58.06167,1.80014L58.6918,2.79022L59.50196,3.69029L60.31213,4.32034L61.75242,3.33026L62.56258,2.07016L63.19271,0.99008
				L63.6428,-1.17009L63.46276,-2.5202L63.19271,-4.95039L63.73281,-5.85046L64.45296,-6.75053L65.80323,-8.10064L66.70341,-8.55068
				L67.87365,-9.18073L69.67401,-9.81078L70.1241,-10.0808L300.03032,-10.0808z"/>
			<path clip-path="url(#SVG_CP_1)" fill="#FFFFBE" fill-rule="evenodd" stroke="none" d="M-7.02141,209.08654L-6.03121,209.53658
				L-4.14083,210.97669L-2.52051,212.86684L-1.35027,214.57698L0.18004,219.07733L1.08022,221.41752L1.17024,223.21766L1.35027,224.83779
				L2.25045,227.17797L16.56333,228.34807L18.54373,228.34807L19.71396,227.98804L20.16405,226.81795L20.16405,225.55785L19.98402,224.29775
				L19.62395,223.03765L19.44391,221.41752L19.35389,220.15742L19.53393,218.35728L20.52413,217.4572L21.33429,216.91716L22.59454,217.00717
				L23.94481,217.27719L25.29509,217.99725L27.00543,218.7173L29.07585,219.25735L30.06605,219.25735L32.49653,219.25735L34.74699,219.61738
				L35.73719,219.70738L37.8076,219.79739L40.23809,219.9774L42.93863,220.42744L46.17928,220.87748L48.2497,220.60745L51.58037,219.52737
				L53.47075,218.7173L55.00106,217.99725L56.35133,216.91716L57.25151,215.83708L58.06167,214.93701L59.05187,213.31688L60.22211,212.05678
				L61.03227,211.33672L62.29252,210.25664L63.19271,209.71659L64.1829,208.90653L65.1731,207.82644L66.43336,206.47634L67.60359,205.30624
				L69.85404,203.05607L71.20432,201.52594L73.45477,199.36577L76.42537,196.93558L79.48598,194.50539L82.09651,192.43523L85.33716,189.555
				L87.76765,187.21481L90.19813,185.14465L93.88888,182.08441L96.4994,180.01424L102.4406,175.15386L106.9415,170.74351L110.09213,167.77327
				L111.44241,166.42317L114.14295,164.89305L115.94331,164.44301L117.74367,164.263L118.73387,164.353L119.99412,164.263L121.8845,164.17299
				L124.31499,164.08298L126.02534,163.54294L126.8355,162.82288L127.91572,161.8328L129.8061,159.58263L131.42642,157.33245L132.50664,155.4423
				L134.57706,151.21196L136.55745,147.16164L138.17778,144.19141L139.61807,142.12124L141.68849,139.60105L144.65908,136.5408L
				146.81952,134.20062L148.97995,132.13045L151.32042,129.88028L153.66089,127.90012L157.98176,124.29983L160.23221,122.5897L161.58249,121.3296
				L164.01297,119.16943L168.06379,115.0291L174.36506,107.4685L176.34545,104.31825L177.0656,102.4281L179.94618,96.21761L182.5567,91.80726
				L184.35706,88.92704L185.70734,86.85687L187.05761,84.6967L187.86777,83.07657L189.03801,81.09642L189.84817,79.11626L190.4783,77.58614
				L192.18864,75.15595L193.71895,73.89585L195.51931,72.81576L197.76976,71.64567L199.57012,70.8356L201.19045,70.38557L202.81077,69.93553
				L203.80097,69.84553L205.96141,69.66551L208.3919,69.21548L210.9124,69.03546L213.07284,68.94546L214.33309,68.76544L216.67356,68.40541
				L220.45432,67.68536L222.43472,67.23532L224.59515,65.7052L225.40532,64.98514L226.03544,64.17508L226.84561,63.36501L227.92582,62.37494
				L228.64597,61.56487L230.17628,60.39478L230.89642,59.67472L231.97664,58.95466L233.41693,58.05459L235.39733,56.70449L237.19769,55.26437
				L238.99805,54.00427L241.06847,52.20413L243.49896,50.40399L245.29932,48.69385L246.91964,47.25374L249.08008,46.53368L250.34033,48.87387
				L251.51057,50.85402L252.23071,52.74417L252.50076,54.27429L252.59078,55.6244L252.6808,57.51455L253.13089,59.49471L253.58098,61.02483
				L254.03107,62.28493L254.75122,63.63504L255.56138,65.25516L256.46156,66.69528L256.91165,68.04538L257.36174,69.21548L257.72181,70.47558
				L258.1719,71.82568L258.80203,72.63575L259.97227,73.71583L260.78243,74.5259L261.41256,75.42597L262.31274,76.86608L262.94286,78.03617
				L264.02308,79.6563L267.44377,83.70662L269.96428,86.40684L272.21473,89.10705L274.64522,91.26722L276.62561,92.34731L277.88587,92.79734
				L279.0561,93.87743L280.13632,95.22753L280.67643,96.57764L282.38677,99.9079L282.83686,101.078L284.18714,104.31825L285.80746,106.1184
				L288.32797,107.3785L290.39838,108.54859L292.01871,109.08863L294.08913,109.9887L295.16934,110.43874L296.33958,111.15879L297.14974,111.69884
				L298.31998,113.94902L298.86009,116.01918L299.49021,117.72931L300.48041,119.70947L301.29057,121.05958L303.18095,123.57978
				L304.44121,125.37992L305.8815,127.00005L307.32179,128.53017L309.75227,130.2403L311.64266,131.86043L313.53304,133.39055L314.79329,134.29063
				L316.50363,135.2807L318.30399,135.82075L319.74428,135.64073L320.91452,135.37071L322.17477,135.1907L323.7951,135.10069L325.23539,135.01068
				L326.49564,134.29063L326.94573,133.39055L327.75589,132.49048L329.37622,131.95044L331.35662,132.7605L332.43684,133.75058L
				333.33702,135.2807L334.32722,136.99084L337.11778,138.971L338.10798,139.42103L339.45825,139.96107L340.44845,141.04116L341.25861,142.8413
				L341.97875,144.1014L343.05897,145.09148L344.40924,145.81154L345.6695,145.99155L346.74971,145.90154L347.73991,145.81154L348.82013,145.63152
				L350.44046,146.6216L351.25062,147.8817L351.70071,149.77185L351.97076,151.03195L352.51087,152.38206L353.77112,154.1822L354.40125,155.35229
				L356.1116,155.98234L357.10179,156.16236L358.45207,156.16236L359.89236,156.61239L361.15261,158.05251L361.33265,159.76264L
				362.50288,161.29276L363.85315,161.20275L365.02339,161.20275L366.55369,161.65279L367.36386,162.28284L369.0742,163.90297L369.97438,164.53302
				L371.32465,165.25307L372.49489,165.5231L373.48509,165.5231L374.47529,164.98305L375.64552,162.91289L376.18563,161.56278L376.72574,160.30268
				L377.5359,159.04258L379.33626,157.9625L382.21684,157.69248L385.36748,158.05251L386.71775,158.32253L387.88798,157.87249L388.9682,156.52238
				L389.59833,154.99226L390.13844,154.00218L391.48871,152.20204L392.74896,151.30197L394.00921,150.85194L395.17945,150.94194
				L396.07963,151.39198L396.79978,152.11204L397.69996,152.65208L398.69016,152.20204L399.95041,151.21196L401.84079,149.41182
				L404.81139,145.99155L406.34169,144.37142L406.34169,312.86475L-7.02141,312.86475L-7.02141,209.08654z"/>
			<path clip-path="url(#SVG_CP_1)" fill="#F2E0CB" fill-rule="evenodd" stroke="#6E6E6E" stroke-width="0.36007" stroke-miterlimit="10" stroke-linecap="round" stroke-linejoin="round" d="
				M70.1241,-10.0808L69.67401,-9.81078L67.87365,-9.18073L66.70341,-8.55068L65.80323,-8.10064L64.45296,-6.75053L63.73281,-5.85046
				L63.19271,-4.95039L63.46276,-2.5202L63.6428,-1.17009L63.19271,0.99008L62.56258,2.07016L61.75242,3.33026L60.31213,4.32034
				L59.50196,3.69029L58.6918,2.79022L58.06167,1.80014L56.17129,0.99008L53.92084,1.62013L52.12048,1.80014L50.68019,0.90007L49.32992,-1.80014
				L48.60977,-3.33026L46.53936,-5.58044L44.55896,-6.84054L39.96804,-9.54076L39.24789,-10.0808L70.1241,-10.0808z"/>
		</g>
		<g id="Other">
			<clipPath id="SVG_CP_2">
				<path d="M0,340.49764L0,0L396.73701,0L396.73701,340.49764L0,340.49764z"/>
			</clipPath>
			<path clip-path="url(#SVG_CP_2)" fill="none" stroke="#000000" stroke-width="0.9902" stroke-miterlimit="10" stroke-linecap="round" stroke-linejoin="round" d="
				M11.79237,298.19359L11.79237,4.59036L387.52791,4.59036L387.52791,298.19359L11.79237,298.19359z"/>
		</g>
	</g>
	<g id="Other_2">
		<path clip-path="url(#SVG_CP_2)" fill="#FFFFC2" fill-rule="evenodd" stroke="#000000" stroke-width="0.9902" stroke-miterlimit="10" stroke-linecap="round" stroke-linejoin="round" d="
			M278.24594,326.18581L278.24594,311.60465L307.50182,311.60465L307.50182,326.18581L278.24594,326.18581z"/>
		<path clip-path="url(#SVG_CP_2)" fill="none" stroke="#6E6E6E" stroke-width="0.9902" stroke-miterlimit="10" stroke-linecap="round" stroke-linejoin="round" d="
			M278.24594,326.18581L278.24594,311.60465L307.50182,311.60465L307.50182,326.18581L278.24594,326.18581"/>
		<path clip-path="url(#SVG_CP_2)" fill="#287BB9" fill-rule="evenodd" stroke="#000000" stroke-width="0.9902" stroke-miterlimit="10" stroke-linecap="round" stroke-linejoin="round" d="
			M172.56469,326.18581L172.56469,311.60465L201.82058,311.60465L201.82058,326.18581L172.56469,326.18581z"/>
		<path clip-path="url(#SVG_CP_2)" fill="none" stroke="#6E6E6E" stroke-width="0.9902" stroke-miterlimit="10" stroke-linecap="round" stroke-linejoin="round" d="
			M172.56469,326.18581L172.56469,311.60465L201.82058,311.60465L201.82058,326.18581L172.56469,326.18581"/>
		<g font-family="'Arial Narrow'" font-size="1" kerning="0" font-weight="700" fill="#000000" clip-path="url(#SVG_CP_2)" >
			<text text-anchor="start" transform="matrix(11.97241 0 0 11.97095 110.81228 323.66653)" >
				<tspan direction="ltr" unicode-bidi="embed" x="0 ">V</tspan>
				<tspan direction="ltr" unicode-bidi="embed" x="0.49618 ">a</tspan>
				<tspan direction="ltr" unicode-bidi="embed" x="0.95477 ">r</tspan>
				<tspan direction="ltr" unicode-bidi="embed" x="1.47351 ">A</tspan>
				<tspan direction="ltr" unicode-bidi="embed" x="2.06742 ">,</tspan>
				<tspan direction="ltr" unicode-bidi="embed" x="2.52601 ">V</tspan>
				<tspan direction="ltr" unicode-bidi="embed" x="3.02971 ">a</tspan>
				<tspan direction="ltr" unicode-bidi="embed" x="3.48078 ">r</tspan>
				<tspan direction="ltr" unicode-bidi="embed" x="4.02958 ">B</tspan>
			</text>
		</g>
		<clipPath id="SVG_CP_3">
			<path d="M0,340.49764L0,0L396.73701,0L396.73701,340.49764L0,340.49764z"/>
		</clipPath>
		<g font-family="'Arial Narrow'" font-size="1" kerning="0" font-weight="700" fill="#000000" clip-path="url(#SVG_CP_3)" >
			<text text-anchor="start" transform="matrix(11.97241 0 0 11.97095 215.8634 323.66653)" >
				<tspan direction="ltr" unicode-bidi="embed" x="0 ">V</tspan>
				<tspan direction="ltr" unicode-bidi="embed" x="0.49618 ">a</tspan>
				<tspan direction="ltr" unicode-bidi="embed" x="0.95477 ">r</tspan>
				<tspan direction="ltr" unicode-bidi="embed" x="1.50358 ">C</tspan>
				<tspan direction="ltr" unicode-bidi="embed" x="2.09749 ">,</tspan>
				<tspan direction="ltr" unicode-bidi="embed" x="2.55608 ">V</tspan>
				<tspan direction="ltr" unicode-bidi="embed" x="3.05978 ">a</tspan>
				<tspan direction="ltr" unicode-bidi="embed" x="3.51085 ">r</tspan>
				<tspan direction="ltr" unicode-bidi="embed" x="4.05966 ">D</tspan>
			</text>
		</g>
	</g>
</svg>
